<mxfile host="app.diagrams.net" modified="2023-12-27T08:48:56.327Z" agent="Mozilla/5.0 (Macintosh; Intel Mac OS X 10_15_7) AppleWebKit/537.36 (KHTML, like Gecko) Chrome/120.0.0.0 Safari/537.36" version="22.1.12" etag="RZ8SLDna6LuRm-7wjgse" type="github">
  <diagram name="第 1 页" id="TIKnK7phG_Cm57spmdPQ">
    <mxGraphModel>
      <root>
        <mxCell id="0" />
        <mxCell id="1" parent="0" />
      </root>
    </mxGraphModel>
  </diagram>
</mxfile>
